<svg width="48" height="60" viewBox="0 0 48 60" fill="none" xmlns="http://www.w3.org/2000/svg">
<g id="&#240;&#159;&#166;&#134; icon &#34;person&#34;">
<g id="Group">
<path id="Vector" d="M24 40C25.5823 40 27.129 39.5308 28.4446 38.6518C29.7602 37.7727 30.7855 36.5233 31.391 35.0615C31.9965 33.5997 32.155 31.9911 31.8463 30.4393C31.5376 28.8874 30.7757 27.462 29.6569 26.3431C28.538 25.2243 27.1126 24.4624 25.5607 24.1537C24.0089 23.845 22.4003 24.0035 20.9385 24.609C19.4767 25.2145 18.2273 26.2398 17.3482 27.5554C16.4692 28.871 16 30.4178 16 32C16 34.1217 16.8429 36.1566 18.3431 37.6569C19.8434 39.1571 21.8783 40 24 40Z" fill="#231F20"/>
<path id="Vector_2" d="M36 60.0012C36.5304 60.0012 37.0391 59.7905 37.4142 59.4154C37.7893 59.0404 38 58.5317 38 58.0012C38 54.2882 36.525 50.7272 33.8995 48.1017C31.274 45.4762 27.713 44.0012 24 44.0012C20.287 44.0012 16.726 45.4762 14.1005 48.1017C11.475 50.7272 10 54.2882 10 58.0012C10 58.5317 10.2107 59.0404 10.5858 59.4154C10.9609 59.7905 11.4696 60.0012 12 60.0012H36Z" fill="#231F20"/>
</g>
</g>
</svg>
